<mxfile host="app.diagrams.net" agent="Mozilla/5.0 (Windows NT 10.0; Win64; x64) AppleWebKit/537.36 (KHTML, like Gecko) Chrome/131.0.0.0 Safari/537.36" version="24.8.3">
  <diagram name="Page-1" id="vXXUxvTOe-fvdRQvYCbr">
    <mxGraphModel dx="682" dy="465" grid="1" gridSize="10" guides="1" tooltips="1" connect="1" arrows="1" fold="1" page="1" pageScale="1" pageWidth="827" pageHeight="1169" math="0" shadow="0">
      <root>
        <mxCell id="0" />
        <mxCell id="1" parent="0" />
        <mxCell id="6UPZUo6CKkpztSmvwRFZ-1" value="" style="endArrow=none;dashed=1;html=1;rounded=0;" edge="1" parent="1">
          <mxGeometry width="50" height="50" relative="1" as="geometry">
            <mxPoint x="240" y="280" as="sourcePoint" />
            <mxPoint x="240" y="160" as="targetPoint" />
          </mxGeometry>
        </mxCell>
        <mxCell id="6UPZUo6CKkpztSmvwRFZ-2" value="Tx_submit High&lt;div&gt;Present packet&lt;/div&gt;" style="rounded=0;whiteSpace=wrap;html=1;" vertex="1" parent="1">
          <mxGeometry x="80" y="190" width="120" height="60" as="geometry" />
        </mxCell>
        <mxCell id="6UPZUo6CKkpztSmvwRFZ-3" value="Clock" style="text;html=1;align=center;verticalAlign=middle;whiteSpace=wrap;rounded=0;" vertex="1" parent="1">
          <mxGeometry x="210" y="130" width="60" height="30" as="geometry" />
        </mxCell>
        <mxCell id="6UPZUo6CKkpztSmvwRFZ-4" value="Read in tx data&lt;div&gt;tx_complete high&lt;/div&gt;" style="rounded=0;whiteSpace=wrap;html=1;fillColor=#f5f5f5;fontColor=#333333;strokeColor=#666666;" vertex="1" parent="1">
          <mxGeometry x="280" y="190" width="120" height="60" as="geometry" />
        </mxCell>
        <mxCell id="6UPZUo6CKkpztSmvwRFZ-5" value="" style="endArrow=none;dashed=1;html=1;rounded=0;" edge="1" parent="1">
          <mxGeometry width="50" height="50" relative="1" as="geometry">
            <mxPoint x="440" y="280" as="sourcePoint" />
            <mxPoint x="440" y="160" as="targetPoint" />
          </mxGeometry>
        </mxCell>
        <mxCell id="6UPZUo6CKkpztSmvwRFZ-6" value="Clock" style="text;html=1;align=center;verticalAlign=middle;whiteSpace=wrap;rounded=0;" vertex="1" parent="1">
          <mxGeometry x="410" y="130" width="60" height="30" as="geometry" />
        </mxCell>
        <mxCell id="6UPZUo6CKkpztSmvwRFZ-7" value="Tx_submit low&lt;div&gt;Stop presenting data&lt;/div&gt;" style="rounded=0;whiteSpace=wrap;html=1;" vertex="1" parent="1">
          <mxGeometry x="480" y="190" width="120" height="60" as="geometry" />
        </mxCell>
      </root>
    </mxGraphModel>
  </diagram>
</mxfile>
